<svg width="16" height="16" viewBox="0 0 16 16" fill="none" xmlns="http://www.w3.org/2000/svg">
<g id="mdi:database-outline">
<path id="Vector" d="M7.99984 2C5.05317 2 2.6665 3.19333 2.6665 4.66667V11.3333C2.6665 12.8067 5.05984 14 7.99984 14C10.9398 14 13.3332 12.8067 13.3332 11.3333V4.66667C13.3332 3.19333 10.9465 2 7.99984 2ZM11.9998 11.3333C11.9998 11.6667 10.5798 12.6667 7.99984 12.6667C5.41984 12.6667 3.99984 11.6667 3.99984 11.3333V9.84667C5.07317 10.3667 6.47984 10.6667 7.99984 10.6667C9.51984 10.6667 10.9265 10.3667 11.9998 9.84667V11.3333ZM11.9998 8.3C11.1332 8.93333 9.61317 9.33333 7.99984 9.33333C6.3865 9.33333 4.8665 8.93333 3.99984 8.3V6.42667C4.97984 6.98 6.4065 7.33333 7.99984 7.33333C9.59317 7.33333 11.0198 6.98 11.9998 6.42667V8.3ZM7.99984 6C5.41984 6 3.99984 5 3.99984 4.66667C3.99984 4.33333 5.41984 3.33333 7.99984 3.33333C10.5798 3.33333 11.9998 4.33333 11.9998 4.66667C11.9998 5 10.5798 6 7.99984 6Z" fill="#2F3640"/>
</g>
</svg>
