<svg width="8" height="8" viewBox="0 0 8 8" fill="none" xmlns="http://www.w3.org/2000/svg">
<path id="Path 29" opacity="0.5" d="M4 0C4.79113 0 5.56448 0.234596 6.22228 0.674122C6.88008 1.11365 7.39277 1.73836 7.69552 2.46927C7.99827 3.20017 8.07748 4.00444 7.92314 4.78036C7.7688 5.55629 7.38784 6.26902 6.82843 6.82843C6.26902 7.38784 5.55629 7.7688 4.78036 7.92314C4.00444 8.07748 3.20017 7.99827 2.46927 7.69552C1.73836 7.39277 1.11365 6.88008 0.674122 6.22228C0.234596 5.56448 0 4.79113 0 4C0 2.93913 0.421427 1.92172 1.17157 1.17157C1.92172 0.421427 2.93913 0 4 0V0Z" fill="white"/>
</svg>
