<svg width="34" height="33" viewBox="0 0 34 33" fill="none" xmlns="http://www.w3.org/2000/svg">
<g id="Group 24">
<rect id="Rectangle 65" x="0.879883" width="32.24" height="32.24" rx="16.12" fill="#00A8FF"/>
<path id="Vector" d="M17.0004 8C12.5802 8 9 11.6706 9 16.2026C8.99904 17.9244 9.52691 19.6028 10.5087 20.9998C11.4905 22.3967 12.8765 23.4412 14.4699 23.9851C14.8699 24.0565 15.0203 23.8104 15.0203 23.5947C15.0203 23.4003 15.0099 22.7547 15.0099 22.0674C13.0002 22.4472 12.4802 21.5654 12.3202 21.1036C12.2298 20.8673 11.8401 20.1398 11.5001 19.9446C11.2201 19.7912 10.8201 19.4114 11.4897 19.4015C12.1202 19.3909 12.5698 19.9962 12.7202 20.2423C13.4402 21.4825 14.5899 21.1339 15.0499 20.919C15.1203 20.3859 15.3299 20.0274 15.5603 19.8223C13.7802 19.6173 11.9201 18.9094 11.9201 15.7719C11.9201 14.8795 12.2298 14.1421 12.7402 13.5671C12.6602 13.362 12.3802 12.5212 12.8202 11.3934C12.8202 11.3934 13.4898 11.1785 15.0203 12.235C15.6716 12.0496 16.3445 11.9564 17.0204 11.9577C17.7004 11.9577 18.3805 12.0496 19.0205 12.2342C20.551 11.1678 21.2206 11.3942 21.2206 11.3942C21.6606 12.5221 21.3806 13.3628 21.3006 13.5679C21.8102 14.1421 22.1207 14.8696 22.1207 15.7719C22.1207 18.9201 20.251 19.6173 18.4701 19.8223C18.7605 20.0783 19.0109 20.5704 19.0109 21.3398C19.0109 22.4365 19.0005 23.3183 19.0005 23.5955C19.0005 23.8104 19.1509 24.0663 19.5509 23.9843C21.1389 23.4344 22.5187 22.3879 23.4962 20.992C24.4737 19.596 24.9996 17.921 25 16.2026C25 11.6706 21.4198 8 16.9996 8H17.0004Z" fill="white"/>
</g>
</svg>
