<svg width="16" height="16" viewBox="0 0 16 16" fill="none" xmlns="http://www.w3.org/2000/svg">
<g id="mdi:checkbox-marked-circle">
<path id="Vector" d="M6.66658 11.3333L3.33325 8.00001L4.27325 7.05334L6.66658 9.44668L11.7266 4.38668L12.6666 5.33334M7.99992 1.33334C7.12444 1.33334 6.25753 1.50578 5.4487 1.84081C4.63986 2.17584 3.90493 2.66691 3.28587 3.28596C2.03563 4.53621 1.33325 6.2319 1.33325 8.00001C1.33325 9.76812 2.03563 11.4638 3.28587 12.7141C3.90493 13.3331 4.63986 13.8242 5.4487 14.1592C6.25753 14.4942 7.12444 14.6667 7.99992 14.6667C9.76803 14.6667 11.4637 13.9643 12.714 12.7141C13.9642 11.4638 14.6666 9.76812 14.6666 8.00001C14.6666 7.12453 14.4941 6.25762 14.1591 5.44879C13.8241 4.63995 13.333 3.90502 12.714 3.28596C12.0949 2.66691 11.36 2.17584 10.5511 1.84081C9.7423 1.50578 8.8754 1.33334 7.99992 1.33334Z" fill="#4CD137"/>
</g>
</svg>
