<svg width="16" height="17" viewBox="0 0 16 17" fill="none" xmlns="http://www.w3.org/2000/svg">
<path id="Vector" d="M8 0.23999C3.58214 0.23999 0 3.82213 0 8.23999C0 12.6578 3.58214 16.24 8 16.24C12.4179 16.24 16 12.6578 16 8.23999C16 3.82213 12.4179 0.23999 8 0.23999ZM8 14.8828C4.33214 14.8828 1.35714 11.9078 1.35714 8.23999C1.35714 4.57213 4.33214 1.59713 8 1.59713C11.6679 1.59713 14.6429 4.57213 14.6429 8.23999C14.6429 11.9078 11.6679 14.8828 8 14.8828ZM8.1 5.37035C9.04643 5.37035 9.68929 5.97392 9.76071 6.85963C9.76607 6.93463 9.82857 6.99178 9.90357 6.99178H10.9161C10.9625 6.99178 11 6.95428 11 6.90785C11 5.35963 9.77857 4.2757 8.09464 4.2757C6.13214 4.2757 5 5.6007 5 7.78999V8.72392C5 10.8971 6.13214 12.2043 8.09464 12.2043C9.77321 12.2043 11 11.1543 11 9.67928C11 9.63285 10.9625 9.59535 10.9161 9.59535H9.90179C9.82679 9.59535 9.76607 9.65249 9.75893 9.72571C9.68393 10.5489 9.04286 11.115 8.09822 11.115C6.93214 11.115 6.275 10.2596 6.275 8.72928V7.78999C6.27679 6.23642 6.93571 5.37035 8.1 5.37035Z" fill="#7F8FA6"/>
</svg>
