<svg width="33" height="33" viewBox="0 0 33 33" fill="none" xmlns="http://www.w3.org/2000/svg">
<g id="Group 1636">
<circle id="Ellipse 338" cx="16.8799" cy="16.1201" r="16" fill="#00A8FF"/>
<path id="Vector" d="M12.44 12.8824C13.24 12.8824 13.88 12.2319 13.88 11.4412C13.88 10.6505 13.23 10 12.44 10C11.65 10 11 10.6505 11 11.4412C11 12.2319 11.65 12.8824 12.44 12.8824ZM15.25 13.9733V22H17.73V18.0367C17.73 16.9858 17.93 15.975 19.22 15.975C20.51 15.975 20.51 17.176 20.51 18.0967V22H23V17.5963C23 15.4345 22.54 13.7731 20.02 13.7731C18.81 13.7731 18 14.4337 17.67 15.0642H17.64V13.9633H15.26L15.25 13.9733ZM11.2 13.9733H13.69V22H11.2V13.9733Z" fill="white"/>
</g>
</svg>
